# xmcd CD database file
#
# Track frame offsets:
#	150
#	19727
#	41119
#	58277
#	86318
#	107699
#	118070
#	136333
#	152713
#	173162
#
# Disc length: 2608 seconds
#
# Revision: 0
# Processed by: cddbd v1.5.2PL0 Copyright (c) Steve Scherf et al.
# Submitted via: CDex 1.70beta2
#
DISCID=810a2e0a
DTITLE=Clifford White - The Lifespring
DYEAR=1989
DGENRE=New Age
TTITLE0=The Last Snows of Winter
TTITLE1=In The Beginning
TTITLE2=Lost at Shore
TTITLE3=Rain Trek
TTITLE4=Hym Halaya
TTITLE5=Water Garden
TTITLE6=Lifestream
TTITLE7=Plateau
TTITLE8=Shimmering Gols
TTITLE9=First to Love
EXTD=YEAR: 1989
EXTT0=
EXTT1=
EXTT2=
EXTT3=
EXTT4=
EXTT5=
EXTT6=
EXTT7=
EXTT8=
EXTT9=
PLAYORDER=
